<svg xmlns="http://www.w3.org/2000/svg" width="52" height="52" fill="none" viewBox="0 0 52 52"><rect width="52" height="52" fill="#fff" rx="26"/><path fill="#316DC2" d="M12 39.87v-6.237h.676l2.835 5.245 2.82-5.245h.687v6.233h-.701v-4.812l-2.57 4.816h-.476l-2.565-4.816v4.816H12ZM30.285 40a4.03 4.03 0 0 1-1.363-.217 2.655 2.655 0 0 1-.997-.623 1.937 1.937 0 0 1-.51-.957l.75-.109c.121.404.375.722.762.953.388.228.85.342 1.388.342.354 0 .671-.047.952-.143.28-.098.5-.236.66-.416a.923.923 0 0 0 .241-.636.793.793 0 0 0-.1-.412.867.867 0 0 0-.265-.285 1.702 1.702 0 0 0-.361-.187 3.144 3.144 0 0 0-.38-.125l-1.83-.473a3.638 3.638 0 0 1-.61-.207 2.17 2.17 0 0 1-.491-.308 1.318 1.318 0 0 1-.32-.424 1.277 1.277 0 0 1-.116-.555c0-.352.107-.657.32-.914.214-.257.506-.455.877-.593a3.54 3.54 0 0 1 1.268-.204c.48 0 .91.074 1.287.221.38.148.695.358.942.633.247.271.41.593.49.966l-.77.12a1.413 1.413 0 0 0-.346-.705c-.18-.2-.411-.352-.692-.46a2.53 2.53 0 0 0-.916-.168c-.324 0-.613.047-.867.143-.25.092-.45.22-.596.38a.801.801 0 0 0-.22.555c0 .211.066.38.2.507.137.127.304.227.5.299.201.072.395.131.582.177l1.412.36c.147.035.32.085.516.152.2.063.395.156.582.277.19.118.347.274.47.468.124.193.186.438.186.736 0 .289-.067.547-.2.775-.13.228-.316.42-.557.576a2.723 2.723 0 0 1-.836.355 4.077 4.077 0 0 1-1.042.126Z"/><path fill="#316DC2" fill-rule="evenodd" d="m23.009 33.633-2.485 6.237h.767l.602-1.512h3.204l.607 1.512h.766l-2.485-6.237h-.976Zm1.849 4.128-1.368-3.41-1.359 3.41h-.5v.597h.262l.238-.597h2.727Z" clip-rule="evenodd"/><path fill="#316DC2" d="M21.631 37.76v.598h.262l.238-.597h-.5Z"/><path fill="#316DC2" fill-rule="evenodd" d="m36.539 33.633-2.485 6.237h.766l.603-1.512h3.204l.607 1.512H40l-2.485-6.237h-.976Zm1.849 4.128-1.368-3.41-1.359 3.41h-.5v.597h.262l.238-.597h2.727Z" clip-rule="evenodd"/><path fill="#316DC2" d="M35.161 37.76v.598h.262l.238-.597h-.5ZM17.813 17.476c-.522.378-.828 1.177-.252 2.133.577.956 8.811 7.407 9.113 7.587.302.179.604.209 1.372-.419.769-.627 7.19-5.527 7.356-5.675.264-.234.33-.806 0-1.075 0 0-7.78 5.914-8.034 6.153-.255.24-.651-.15-.577-.657.075-.508.13-.568 1.118-1.344.988-.777 6.59-5.09 6.845-5.28.287-.217.294-.599-.177-.936-.656-.47-7.74-5.587-7.976-5.766-.238-.18-.566-.342-1.06.016-.494.359-6.77 4.57-7.729 5.263Z"/><path fill="#316DC2" d="M26.674 27.825c-.198-.117-3.811-2.935-6.435-5.13v4.575c-.002 3.34 9.26 5.124 12.327 1.019v-4.373c-1.885 1.447-4.09 3.14-4.52 3.491-.768.627-1.07.597-1.372.418Z"/><path fill="#98B8E6" d="M30.593 22.81s1.377.702 1.475 3.533l-.667-.187-.534 1.152c-.226-3.1-1.455-3.549-1.455-3.549l1.181-.95Z"/></svg>