<svg xmlns="http://www.w3.org/2000/svg"><style>:root svg:not(:target){display:none}</style><svg fill="none" viewBox="0 0 22 22" id="arrow-down"><path stroke="#316DC2" d="m21 7-10 9L1 7"></path></svg><svg fill="none" viewBox="0 0 10 10" id="arrow"><g clip-path="url(#arrow_0)"><path stroke="#fff" d="m1 9 8-8m0 0H1.05M9 1v7.95"></path></g><defs><clipPath id="arrow_0"><path fill="#fff" d="M0 0h10v10H0z"></path></clipPath></defs></svg><svg fill="none" viewBox="0 0 16 16" id="arrowblue"><g clip-path="url(#arrowblue_0)"><path stroke="#316DC2" d="M2.34 8h11.32m0 0L8.04 2.38M13.66 8l-5.62 5.62"></path></g><defs><clipPath id="arrowblue_0"><path fill="#fff" d="M8 .93 15.07 8 8 15.07.93 8z"></path></clipPath></defs></svg><svg fill="none" viewBox="0 0 22 22" id="check"><path stroke="#316DC2" stroke-linecap="round" stroke-linejoin="round" d="M1 9.5 8.37 20 21 2"></path></svg><svg fill="none" viewBox="0 0 20 20" id="close"><path stroke="#316DC2" stroke-linecap="round" stroke-linejoin="round" d="m1 19 9-9m0 0 9-9m-9 9 9 9m-9-9L1 1"></path></svg><svg viewBox="0 0 20 20" fill="none" id="icon-close"><path d="M.293 18.291a1 1 0 101.414 1.414L10 11.413l8.292 8.292a1 1 0 101.414-1.414l-8.292-8.292 8.292-8.292A1 1 0 1018.291.293L9.999 8.585 1.707.293A1 1 0 10.293 1.707L8.585 10 .293 18.291z"></path></svg><svg fill="none" viewBox="0 0 20 20" id="menu"><path stroke="#fff" stroke-linecap="round" d="M1 6h18M1 10h18M1 14h18"></path></svg><svg fill="none" viewBox="0 0 20 20" id="minus-blue"><path stroke="#316DC2" d="M1 10h18"></path></svg><svg fill="none" viewBox="0 0 20 20" id="minus"><path stroke="#fff" d="M1 10h18"></path></svg><svg fill="none" viewBox="0 0 16 16" id="ok"><path fill="#fff" d="M8 2.42c.96 0 1.74.77 1.74 1.71S8.96 5.83 8 5.83s-1.74-.76-1.74-1.7S7.04 2.42 8 2.42Zm0 5.84a4.18 4.18 0 0 0 4.21-4.13A4.18 4.18 0 0 0 8 0a4.17 4.17 0 0 0-4.21 4.13A4.17 4.17 0 0 0 8 8.26Zm1.7 3.37c.86-.2 1.69-.53 2.45-1 .58-.35.75-1.1.39-1.66a1.25 1.25 0 0 0-1.7-.39 5.44 5.44 0 0 1-5.68 0 1.24 1.24 0 0 0-1.7.39 1.2 1.2 0 0 0 .39 1.66c.76.47 1.59.8 2.45 1l-2.36 2.3a1.2 1.2 0 0 0 0 1.71 1.25 1.25 0 0 0 1.75 0L8 13.38l2.32 2.26c.48.48 1.26.48 1.74 0a1.2 1.2 0 0 0 0-1.7L9.7 11.62Z"></path></svg><svg fill="none" viewBox="0 0 22 22" id="pin"><path fill="#316DC2" fill-rule="evenodd" d="M7.04 1.03A8 8 0 0 1 19 7.99c-.06 2.8-1.65 5.42-3.65 7.45a21.23 21.23 0 0 1-3.84 3.1c-.14.08-.3.14-.46.16a.97.97 0 0 1-.45-.13c-2.13-1.33-4-3.02-5.53-5A9.97 9.97 0 0 1 3 7.85a7.82 7.82 0 0 1 4.04-6.82Zm1.44 7.98c.42 1 1.41 1.65 2.51 1.65.72 0 1.41-.27 1.92-.77s.8-1.18.8-1.88c0-1.08-.66-2.06-1.67-2.47a2.76 2.76 0 0 0-2.97.57 2.63 2.63 0 0 0-.6 2.9Z" clip-rule="evenodd"></path><path fill="#316DC2" d="M16.71 20.9c0 .6-2.55 1.1-5.71 1.1s-5.71-.5-5.71-1.1c0-.6 2.55-1.1 5.71-1.1s5.71.5 5.71 1.1Z"></path></svg><svg fill="none" viewBox="0 0 20 20" id="plus-blue"><path stroke="#316DC2" d="M10 1v9m0 0v9m0-9H1m9 0h9"></path></svg><svg fill="none" viewBox="0 0 20 20" id="plus"><path stroke="#fff" d="M10 1v9m0 0v9m0-9H1m9 0h9"></path></svg><svg fill="none" viewBox="0 0 16 16" id="reddit"><path fill="#fff" d="M9.415.364c-.466 0-.904.248-1.185.606-.28.359-.435.795-.548 1.256-.18.74-.234 1.56-.248 2.3-1.31.092-2.498.5-3.483 1.13-.4-.352-.883-.549-1.345-.543-.526.005-1.025.243-1.397.732-.71.934-.627 2.46.195 3.368a4.81 4.81 0 0 0-.088.858c0 3.076 2.993 5.565 6.684 5.565 3.692 0 6.685-2.492 6.685-5.565 0-.29-.038-.578-.088-.858.822-.907.904-2.434.194-3.368-.371-.49-.87-.727-1.397-.732-.462-.006-.944.19-1.344.544a7.403 7.403 0 0 0-3.466-1.13c.018-.683.064-1.391.194-1.925.082-.335.18-.578.283-.711.104-.134.18-.189.354-.189.378 0 .427.129.654.44.115.157.248.353.46.544.212.19.526.355.867.355V1.702c-.095 0-.113-.002-.177-.062-.064-.06-.153-.199-.283-.377-.261-.358-.767-.9-1.521-.9Zm3.678.125c-.88 0-1.591.842-1.591 1.883 0 1.04.712 1.883 1.591 1.883.88 0 1.592-.842 1.592-1.883 0-1.04-.712-1.883-1.592-1.883Zm0 .67c.566 0 1.026.543 1.026 1.213s-.46 1.213-1.026 1.213c-.566 0-1.025-.544-1.025-1.213 0-.67.46-1.213 1.025-1.213ZM8 5.573c3.133 0 5.783 2.063 5.783 4.498 0 2.438-2.65 4.498-5.783 4.498-3.132 0-5.783-2.06-5.783-4.498 0-2.435 2.65-4.498 5.783-4.498Zm-5.376.607c.157.002.32.044.478.125a5.45 5.45 0 0 0-1.327 1.758c-.212-.518-.154-1.164.106-1.507a.903.903 0 0 1 .743-.376Zm10.752 0a.903.903 0 0 1 .743.376c.261.343.318.989.106 1.507A5.45 5.45 0 0 0 12.9 6.305c.157-.08.32-.123.477-.125Zm-7.64 1.673c-.565 0-1.025.544-1.025 1.214 0 .67.46 1.213 1.026 1.213.566 0 1.025-.544 1.025-1.213 0-.67-.46-1.214-1.025-1.214Zm4.528 0c-.566 0-1.026.544-1.026 1.214 0 .67.46 1.213 1.026 1.213.566 0 1.026-.544 1.026-1.213 0-.67-.46-1.214-1.026-1.214Zm-5.076 4.122c.36.881 1.475 1.736 2.812 1.736 1.338 0 2.47-.855 2.83-1.736-.655.5-1.687.837-2.83.837s-2.157-.337-2.812-.837Z"></path></svg><svg fill="none" viewBox="0 0 22 22" id="star"><path fill="#fff" d="m11 0 3.014 5.475L20 5.5 17.027 11 20 16.5l-5.986.025L11 22l-3.014-5.475L2 16.5 4.972 11 2 5.5l5.986-.025L11 0Z"></path></svg><svg fill="none" viewBox="0 0 11 12" id="vector"><path stroke="#316DC2" d="M0 5.69h10m0 0L5.03 11M10 5.69 5.03 1"></path></svg><svg viewBox="0 0 16 16" id="vk"><path fill-rule="evenodd" clip-rule="evenodd" fill="#currentColor" d="M15.86 11.42c-.05-.07-.31-.62-1.6-1.76-1.33-1.19-1.15-1 .46-3.05.99-1.25 1.38-2.02 1.26-2.34-.12-.32-.84-.23-.84-.23l-2.4.01s-.19-.02-.32.05a.65.65 0 0 0-.21.25s-.38.97-.9 1.8c-1.06 1.73-1.5 1.82-1.67 1.72-.4-.26-.3-1.02-.3-1.55 0-1.69.27-2.4-.52-2.57a4.3 4.3 0 0 0-1.13-.11c-.85-.01-1.58 0-2 .2-.27.12-.48.4-.35.42.16.02.52.1.71.35.25.32.24 1.04.24 1.04s.14 1.98-.33 2.23c-.33.17-.77-.18-1.73-1.76-.48-.8-.85-1.7-.85-1.7s-.08-.17-.2-.25c-.16-.11-.37-.15-.37-.15l-2.29.02s-.34 0-.47.15c-.11.13 0 .39 0 .39s1.78 4 3.81 6.02c1.86 1.85 3.97 1.73 3.97 1.73h.95s.3-.03.44-.19c.14-.14.13-.4.13-.4s-.02-1.22.58-1.4c.59-.18 1.34 1.18 2.14 1.7.6.4 1.06.32 1.06.32l2.14-.03s1.12-.07.59-.9Z"></path></svg></svg>