<svg xmlns="http://www.w3.org/2000/svg" width="22" height="22" fill="none" viewBox="0 0 22 22"><path fill="#316DC2" fill-rule="evenodd" d="M7.04 1.03A8 8 0 0 1 19 7.99c-.06 2.8-1.65 5.42-3.65 7.45a21.23 21.23 0 0 1-3.84 3.1c-.14.08-.3.14-.46.16a.97.97 0 0 1-.45-.13c-2.13-1.33-4-3.02-5.53-5A9.97 9.97 0 0 1 3 7.85a7.82 7.82 0 0 1 4.04-6.82Zm1.44 7.98c.42 1 1.41 1.65 2.51 1.65.72 0 1.41-.27 1.92-.77s.8-1.18.8-1.88c0-1.08-.66-2.06-1.67-2.47a2.76 2.76 0 0 0-2.97.57 2.63 2.63 0 0 0-.6 2.9Z" clip-rule="evenodd"/><path fill="#316DC2" d="M16.71 20.9c0 .6-2.55 1.1-5.71 1.1s-5.71-.5-5.71-1.1c0-.6 2.55-1.1 5.71-1.1s5.71.5 5.71 1.1Z"/></svg>